<svg width="80" height="80" viewBox="0 0 80 80" fill="none" xmlns="http://www.w3.org/2000/svg">
  <path d="M40 56.8437C36.6686 56.8437 33.4121 55.8558 30.6422 54.005C27.8722 52.1542 25.7134 49.5236 24.4385 46.4458C23.1636 43.368 22.8301 39.9813 23.48 36.714C24.1299 33.4467 25.7341 30.4454 28.0897 28.0898C30.4454 25.7342 33.4466 24.13 36.714 23.48C39.9813 22.8301 43.368 23.1637 46.4458 24.4385C49.5235 25.7134 52.1541 27.8723 54.0049 30.6422C55.8557 33.4121 56.8436 36.6687 56.8436 40C56.8398 44.466 55.0639 48.7481 51.906 51.906C48.748 55.064 44.466 56.8398 40 56.8437ZM79.5781 45.7891C79.8601 43.8626 80.001 41.918 79.9999 39.9709C79.9988 38.3859 79.9016 36.8024 79.709 35.2291H71.2727C70.5467 30.4716 68.7405 25.9437 65.9927 21.9928L71.9854 16C69.8641 13.1881 67.385 10.665 64.6109 8.49459L58.6036 14.5455C54.6524 11.6634 50.0868 9.73658 45.2654 8.91641V0.363689C41.7719 -0.12123 38.2281 -0.12123 34.7345 0.363689V8.85823C29.9081 9.69578 25.3421 11.6427 21.3964 14.5455L15.3891 8.48005C12.614 10.655 10.1349 13.183 8.01455 16L14.0509 22.0364C11.2896 25.9791 9.46848 30.5021 8.72727 35.2582H0.290915C0.0983456 36.8315 0.00119827 38.415 6.19668e-06 40C-0.0010772 41.9471 0.139903 43.8916 0.421824 45.8182H8.96C9.83571 50.4461 11.745 54.8166 14.5455 58.6036L8.48 64.6109C10.651 67.3895 13.1796 69.8691 16 71.9855L22.0364 65.9491C25.8355 68.6031 30.1783 70.377 34.7491 71.1418V79.6509C38.2439 80.1164 41.7851 80.1164 45.28 79.6509V71.1418C49.8507 70.377 54.1936 68.6031 57.9927 65.9491L64 71.9855C66.8153 69.8681 69.3389 67.3885 71.5054 64.6109L65.4545 58.6036C68.2382 54.8028 70.1277 50.4223 70.9818 45.7891H79.5781Z" fill="white"/>
</svg>
