<svg width="53" height="80" viewBox="0 0 53 80" fill="none" xmlns="http://www.w3.org/2000/svg">
  <path d="M52.8291 0V51.2291C52.8291 51.2291 36.0873 63.2873 29.2364 80V41.9055C30.7798 41.2498 32.0493 40.0808 32.8297 38.5966C33.6102 37.1123 33.8538 35.404 33.5192 33.7607C33.1847 32.1175 32.2925 30.6403 30.9938 29.5794C29.6951 28.5185 28.0697 27.939 26.3927 27.939C24.7158 27.939 23.0903 28.5185 21.7916 29.5794C20.4929 30.6403 19.6008 32.1175 19.2662 33.7607C18.9316 35.404 19.1752 37.1123 19.9557 38.5966C20.7362 40.0808 22.0056 41.2498 23.5491 41.9055V79.9127C16.6836 63.2436 0 51.2291 0 51.2291V0H52.8291Z" fill="white"/>
</svg>
