<?xml version="1.0" encoding="UTF-8"?>
<svg id="Layer_2" data-name="Layer 2" xmlns="http://www.w3.org/2000/svg" viewBox="0 0 934.34 79.52">
  <defs>
    <style>
      .cls-1 {
        fill: #1e1f1c;
      }
    </style>
  </defs>
  <g id="Layer_1-2" data-name="Layer 1">
    <g>
      <g>
        <path class="cls-1" d="m740.27,38.03c-9.15,0-14.29-3.22-14.29-8.93,0-7.73,7.36-13.25,18.32-13.25h.75c8.76,0,14.33,3.59,14.33,9.2-.02,7.54-8.19,12.98-19.14,12.98h.04Zm-15.72,17.38h.8c2.38,0,6.77.46,13.54,1.5,6.16.83,9.55,1.5,12.53,2.39,5.18,1.5,7.96,3.68,7.96,6.25,0,5.81-13.13,10.21-30.09,10.21s-27.83-3.68-27.83-9.19c0-3.22,3.19-5.81,9.78-8.1,4.5-1.59,10.29-2.87,13.28-3.07h.04Zm-28.37-18.87c0,2.26-.35,3.7-1.33,4.61-1.6,1.5-3.21,1.75-5.72,1.75-3.55,0-5.23-1.67-5.23-4.19s1.81-4.11,5.09-4.11h7.19v1.94Zm100.8-23.37c-3.41-.04-6.7,1.32-9.08,3.76v-3.35h-24.77c-5.06-1.11-10.22-1.64-15.4-1.57-21.21,0-37.42,7.39-37.42,17.2,0,3.6,2.41,6.38,8,9.06l-3.01,1.3-4.2,1.74c-2.1.79-4.08,1.85-5.89,3.16v-18.46c0-8.51-5.27-12.84-15.5-12.84-6.07,0-9.56,1.12-13.12,5.02l5.79,5.66c1.89-2.17,3.49-3.01,6.98-3.01,4.81,0,6.77,1.74,6.77,5.72v1.82h-8.58c-8.45,0-12.43,4.74-12.43,10.53-.09,3.01.99,5.94,3.01,8.17,2.17,2.16,5.17,3.2,9.28,3.2s6.49-1.05,8.94-3.49v3.14h8.85v-.24c1.87,1.14,5.2,2.26,10.29,3.45l-5.6,1.39c-8.6,2.13-11.8,3.14-15.4,4.72-5,2.13-7.6,4.81-7.6,7.85,0,7.41,16,12.4,40.01,12.4,27.4,0,47.61-7.03,47.61-16.37,0-3.24-2.8-6.1-8.2-8.05-4.6-1.66-9.03-2.59-25-4.72-12.61-1.66-16.41-2.4-19.61-3.76-1.4-.75-2.4-1.75-2.4-2.77,0-1.5,1.4-2.41,5.2-3.89,5.21.98,10.5,1.45,15.8,1.39,19.8,0,35.2-7.4,35.2-16.74,0-2.78-.8-4.35-3.8-6.77,0,0,3.76,0,7.32.35v31.76h9.07v-21.99c0-4.96,3.21-6.63,6.07-6.63s6.02,1.67,6.02,6.63v21.98h9.07v-23.24c0-3.98-.75-7.4-3.7-10.33-2.01-2.02-4.94-3.21-8.57-3.21"/>
        <path class="cls-1" d="m834.88,40.57c-1.14,1.1-2.68,1.69-4.26,1.61-1.56.08-3.08-.51-4.19-1.61-1.88-1.88-2.09-5.08-2.09-8.85s.21-6.91,2.09-8.79c1.11-1.1,2.63-1.68,4.19-1.6,1.58-.08,3.12.5,4.26,1.6,1.89,1.88,2.09,5.02,2.09,8.79s-.2,7-2.09,8.85m-4.26-27.39c-5.37,0-9.03,2.1-11.24,4.47-3.28,3.42-4.11,7.52-4.11,14.1s.83,10.74,4.11,14.16c2.26,2.37,5.87,4.46,11.24,4.46s9.07-2.09,11.28-4.46c3.28-3.42,4.11-7.52,4.11-14.16s-.83-10.67-4.11-14.1c-2.21-2.37-5.91-4.47-11.28-4.47"/>
        <path class="cls-1" d="m862.02,39V.27h-9.07v39.29c0,5.16,3.14,10.4,10.61,10.4h5.17v-7.67h-3.49c-2.31,0-3.21-1.12-3.21-3.28"/>
        <rect class="cls-1" x="874.58" y="13.61" width="9.07" height="36.35"/>
        <rect class="cls-1" x="874.44" width="9.28" height="7.39"/>
        <path class="cls-1" d="m910.79,36.55c0,2.26-.35,3.7-1.32,4.61-1.6,1.5-3.2,1.75-5.72,1.75-3.56,0-5.27-1.67-5.27-4.19s1.81-4.11,5.1-4.11h7.18l.03,1.94Zm-6.42-23.37c-6.07,0-9.56,1.12-13.13,5.02l5.8,5.66c1.88-2.17,3.49-3.01,6.97-3.01,4.81,0,6.77,1.74,6.77,5.72v1.82h-8.58c-8.44,0-12.43,4.74-12.43,10.53-.09,3.01.99,5.94,3.01,8.17,2.16,2.16,5.17,3.2,9.27,3.2s6.49-1.05,8.94-3.49v3.14h8.86v-23.93c0-8.51-5.3-12.84-15.49-12.84"/>
        <path class="cls-1" d="m657.02,13.18c-4.14-.17-8.13,1.52-10.89,4.6-2.3-3.14-5.58-4.6-9.63-4.6-3.4,0-6.67,1.35-9.07,3.76v-3.35h-8.86v36.35h9.07v-21.97c0-4.96,3.21-6.63,6.07-6.63s6.02,1.67,6.02,6.63v21.98h9.06v-22.17c0-4.75,3.28-6.42,6.06-6.42s6.02,1.67,6.02,6.63v21.98h9.07v-23.25c0-3.98-1.05-7.4-3.97-10.33-2.05-2.02-5.33-3.21-8.95-3.21"/>
        <path class="cls-1" d="m927.68,11.33h-1.08v-1.42h1.08c.39-.04.74.24.78.64.04.39-.24.74-.64.78-.05,0-.1,0-.15,0m2.6-.75c.04-1.21-.92-2.22-2.13-2.26-.07,0-.14,0-.21,0h-3.16v7.07h1.81v-2.66h.75l1.07,2.64h2.1l-1.32-2.96c.7-.34,1.13-1.07,1.09-1.84"/>
        <path class="cls-1" d="m927.39,17.08c-2.91.08-5.33-2.21-5.41-5.12-.08-2.91,2.21-5.33,5.12-5.41,2.91-.08,5.33,2.21,5.41,5.12,0,.05,0,.09,0,.14.14,2.77-1.99,5.12-4.76,5.26-.12,0-.24,0-.36,0m0-12.2c-3.84,0-6.96,3.11-6.97,6.95,0,3.84,3.11,6.96,6.95,6.97,3.84,0,6.96-3.11,6.97-6.95h0c0-3.85-3.11-6.96-6.95-6.97"/>
      </g>
      <g>
        <path class="cls-1" d="m6.16,13.71l11.83,29.52,11.83-29.52h6.19v36.18h-4.77v-14.09l.45-15.21-11.88,29.3h-3.65L4.3,20.66l.47,15.13v14.09H0V13.71h6.16Z"/>
        <path class="cls-1" d="m69.31,40.42h-15.16l-3.41,9.47h-4.92l13.82-36.18h4.17l13.84,36.18h-4.9l-3.45-9.47Zm-13.72-3.9h12.3l-6.16-16.92-6.14,16.92Z"/>
        <path class="cls-1" d="m87.44,49.89V13.71h10.21c3.15,0,5.93.7,8.35,2.09s4.29,3.37,5.6,5.94c1.32,2.57,1.98,5.52,2,8.85v2.31c0,3.41-.66,6.4-1.98,8.97-1.32,2.57-3.2,4.54-5.64,5.91-2.44,1.38-5.29,2.08-8.54,2.11h-10.01Zm4.77-32.28v28.38h5.02c3.68,0,6.54-1.14,8.59-3.43,2.04-2.29,3.07-5.55,3.07-9.78v-2.11c0-4.11-.96-7.31-2.89-9.59-1.93-2.28-4.67-3.44-8.21-3.47h-5.57Z"/>
        <path class="cls-1" d="m145.58,33.16h-15.68v12.82h18.22v3.9h-22.99V13.71h22.74v3.9h-17.97v11.66h15.68v3.9Z"/>
        <path class="cls-1" d="m196.78,33.91h-15.18v15.98h-4.77V13.71h22.42v3.9h-17.64v12.4h15.18v3.9Z"/>
        <path class="cls-1" d="m236.61,32.97c0,3.55-.6,6.64-1.79,9.28-1.19,2.64-2.88,4.66-5.07,6.05-2.19,1.39-4.74,2.09-7.65,2.09s-5.38-.7-7.58-2.1c-2.2-1.4-3.91-3.4-5.13-5.99s-1.84-5.6-1.88-9.01v-2.61c0-3.48.6-6.55,1.81-9.22,1.21-2.67,2.92-4.71,5.13-6.13,2.21-1.42,4.74-2.12,7.59-2.12s5.46.7,7.67,2.1,3.91,3.43,5.11,6.09c1.19,2.66,1.79,5.75,1.79,9.28v2.29Zm-4.75-2.34c0-4.29-.86-7.58-2.58-9.88-1.72-2.29-4.13-3.44-7.23-3.44s-5.39,1.15-7.12,3.44c-1.73,2.29-2.62,5.48-2.67,9.56v2.66c0,4.16.87,7.43,2.62,9.8,1.75,2.38,4.15,3.57,7.22,3.57s5.47-1.12,7.16-3.37c1.69-2.24,2.56-5.46,2.61-9.65v-2.68Z"/>
        <path class="cls-1" d="m261.46,35.25h-8.5v14.64h-4.8V13.71h11.98c4.08,0,7.21.93,9.41,2.78,2.2,1.86,3.29,4.56,3.29,8.1,0,2.25-.61,4.22-1.83,5.89-1.22,1.67-2.91,2.92-5.08,3.75l8.5,15.36v.3h-5.12l-7.85-14.64Zm-8.5-3.9h7.33c2.37,0,4.25-.61,5.65-1.84,1.4-1.23,2.1-2.87,2.1-4.93,0-2.24-.67-3.96-2-5.15-1.33-1.2-3.26-1.8-5.78-1.82h-7.31v13.74Z"/>
        <path class="cls-1" d="m327.31,17.61h-11.63v32.28h-4.75V17.61h-11.61v-3.9h27.98v3.9Z"/>
        <path class="cls-1" d="m365.12,49.89h-4.8v-16.72h-18.24v16.72h-4.77V13.71h4.77v15.56h18.24v-15.56h4.8v36.18Z"/>
        <path class="cls-1" d="m398.46,33.16h-15.68v12.82h18.22v3.9h-22.99V13.71h22.74v3.9h-17.97v11.66h15.68v3.9Z"/>
        <path class="cls-1" d="m442.98,35.25h-8.5v14.64h-4.8V13.71h11.98c4.07,0,7.21.93,9.41,2.78,2.2,1.86,3.29,4.56,3.29,8.1,0,2.25-.61,4.22-1.83,5.89-1.22,1.67-2.91,2.92-5.08,3.75l8.5,15.36v.3h-5.12l-7.85-14.64Zm-8.5-3.9h7.33c2.37,0,4.25-.61,5.65-1.84,1.4-1.23,2.1-2.87,2.1-4.93,0-2.24-.67-3.96-2-5.15s-3.26-1.8-5.78-1.82h-7.31v13.74Z"/>
        <path class="cls-1" d="m486.29,33.16h-15.68v12.82h18.22v3.9h-22.99V13.71h22.74v3.9h-17.97v11.66h15.68v3.9Z"/>
        <path class="cls-1" d="m520.96,40.42h-15.16l-3.41,9.47h-4.92l13.82-36.18h4.17l13.84,36.18h-4.89l-3.46-9.47Zm-13.72-3.9h12.3l-6.16-16.92-6.14,16.92Z"/>
        <path class="cls-1" d="m543.89,45.99h17.15v3.9h-21.94V13.71h4.8v32.28Z"/>
      </g>
    </g>
  </g>
</svg>