<?xml version="1.0" encoding="UTF-8"?>
<svg id="Layer_1" data-name="Layer 1" xmlns="http://www.w3.org/2000/svg" viewBox="0 0 300 60">
  <defs>
    <style>
      .cls-1 {
        stroke-width: 0px;
      }
    </style>
  </defs>
  <g>
    <g>
      <polygon class="cls-1" points="11.64 16.07 0 16.07 0 27.67 11.64 27.67 11.64 27.67 11.64 16.07"/>
      <polygon class="cls-1" points="23.28 27.67 11.64 27.67 11.64 39.31 23.28 39.31 23.28 38.63 23.28 27.67"/>
    </g>
    <path class="cls-1" d="M83.82,39.28c-1.75-.19-3.52-.74-4.39-2.08-3.66-5.65-7.03-16.84-10.58-20.39-4.39-4.39-10.66-4.45-14.37-2.78-3.31,1.49-5.9,4.22-6.9,7.81-.69,2.51-.56,5.15-.01,7.88.39,1.93-.46,4.54-3.38,4.08-1.36-.22-2.4-1.71-3.06-2.81-2.61-4.35-4.1-7.98-7.48-11.37-3.41-3.41-7.61-4.2-10.37-3.62v11.59c4.23-.62,4.99,2.33,7.41,6,1.25,1.89,2.82,5,4.84,7.02,2.79,2.79,5.07,3.92,9,4.16,3.98.24,7.02-1.24,9.87-4.05,2.73-2.69,3.53-6.52,3.55-10.34,0-1.62-.57-4.33-.14-5.2,1.21-2.47,4.18-1.44,5.1,1.45,1.52,4.78,5,13.61,9.65,17.79,3.39,3.05,6.2,4.69,11.27,4.58v-9.73h0Z"/>
  </g>
  <g>
    <path class="cls-1" d="M151.26,26.32v-1.73c0-3.39-1.77-4.68-4.4-4.85-.52-.04-1.94.01-2.75.63-1.09.83-1.35,2.98-1.53,3.47-.25.68-.42.97-.73,1.22-.32.25-.73.42-1.34.42-1.52,0-2.24-.69-2.24-1.98,0-1.41.89-3.1,2.84-4.01,1.54-.72,3.71-1.24,6.58-1.18s5,.55,6.41,1.48c1.8,1.19,2.23,2.47,2.23,4.65v9.02c-.01,1.52-.05,2.83.2,3.58.23.7.72.88,1.38.96.39.05.79-.09,1.15-.28.63-.34,1.01-1.33,1.17-2.2l.82.14c0,2.19-1.07,3.15-1.93,3.75-.8.56-2.08.75-3.15.75-1.34,0-2.36-.57-3.11-1.2-1.03-.86-1.47-2.46-1.47-2.46,0,0-1.53,1.64-2.93,2.37-1.4.73-2.96,1.29-4.66,1.29-1.92,0-3.56-.47-4.66-1.29-1.1-.82-1.51-2.07-1.51-3.45,0-.62.13-1.21.39-1.78.26-.57.65-1.48,1.26-2.09.55-.55,1.11-1.1,2.06-1.6s1.95-.92,3.32-1.44l6.62-2.21ZM151.26,27.69c-1.74.57-2.99,1.12-4.2,1.65-1.21.54-2.13,1.13-2.91,1.84-.67.61-.89,1.34-1.06,2.12-.1.46-.06,1.07-.06,1.64,0,.85.45,1.61,1.15,2.12s1.36.72,2.29.72c.79,0,1.53-.27,2.22-.61.69-.33,1.97-1.48,2.5-2.06l.08-7.41h0Z"/>
    <path class="cls-1" d="M290.23,26.1v-1.37c0-3.39-1.77-4.68-4.4-4.85-.52-.04-1.94.01-2.75.63-1.09.83-1.35,2.98-1.53,3.47-.25.68-.42.97-.73,1.22-.32.25-.73.42-1.34.42-1.52,0-2.24-.69-2.24-1.98,0-1.41.89-3.1,2.84-4.01,1.54-.72,3.71-1.24,6.58-1.18,2.86.06,5,.55,6.41,1.48,1.8,1.19,2.23,2.47,2.23,4.65v8.65c-.01,1.52-.05,2.83.2,3.58.23.7.72.88,1.38.96.39.05.79-.09,1.15-.28.63-.34,1.01-1.33,1.17-2.2l.82.14c0,2.19-1.07,3.15-1.93,3.75-.8.56-2.08.75-3.15.75-1.34,0-2.36-.57-3.11-1.2-1.03-.86-1.47-2.46-1.47-2.46,0,0-1.53,1.64-2.93,2.37-1.4.73-2.96,1.29-4.66,1.29-1.92,0-3.56-.47-4.66-1.29-1.1-.82-1.51-2.07-1.51-3.45,0-.62.13-1.21.39-1.78.26-.57.65-1.48,1.26-2.09.55-.55,1.11-1.1,2.06-1.6s1.95-.92,3.32-1.44l6.62-2.21ZM290.23,27.47c-1.74.57-2.99,1.12-4.2,1.65-1.21.54-2.13,1.13-2.91,1.84-.67.61-.89,1.34-1.06,2.12-.1.46-.06,1.07-.06,1.64,0,.85.45,1.61,1.15,2.12.7.51,1.36.72,2.29.72.79,0,1.53-.27,2.22-.61.69-.33,1.97-1.48,2.5-2.06l.08-7.41h0Z"/>
    <path class="cls-1" d="M187.04,19.31c-.33-.54-.88-.9-1.48-1.04-1.35-.3-2.88.11-3.94.99-.38.32-.7.71-1.01,1.1-1.7-1.49-4.29-2.2-7.18-2.2-5.11,0-9.27,2.6-9.26,7.08,0,1.96.84,3.55,2.24,4.71.86.71,2.82,1.46,4.89,1.65-1.89.33-3.88.9-5.41,2.12-1.64,1.31-2.24,4.11-1.11,6.03.58.99,1.62,1.64,2.72,1.98,2.1.65,4.2.46,6.35.16,2.58-.37,6.52-.4,7.49,2.86.33,1.12.28,2.43-.44,3.81-.74,1.43-2.34,2.91-5.09,3.55-3.14.72-6.15-.53-7.9-2.42-1.83-1.97-1.53-3.64-1.15-5.62-1.85-.82-3.31-.34-4.07.89-.69,1.11-.16,3.2.23,3.93.98,1.84,2.78,3.15,5.75,4.08,5.15,1.61,12.83,1.13,15.59-4.58.96-1.98,1.08-4.63.35-6.71-.9-2.59-3.58-4.06-6.06-4.57-3.3-.67-6.12.29-9.02.1-.44-.03-.89-.06-1.3-.23-.41-.17-.77-.51-.85-.94-.21-1.09,1.4-2.24,2.22-2.63.58-.27,2.33-1.15,3.91-1.34,2.24-.27,3.76-.43,5.25-1.16,2.36-1.16,3.91-3.12,3.92-5.68,0-1.64-.47-2.97-1.29-4.03.13-.36.41-.65.72-.87.52-.38,1.2-.59,1.79-.37.43.16.87.54,1.17.87.38.43.57.58.97.63.21.03.45-.04.63-.14.34-.18.56-.54.61-.92.05-.38-.06-.77-.26-1.1h.02ZM173.43,30.72c-2.52-.04-4.2-2.54-4.18-5.64.02-3.1,1.41-5.58,4.26-5.59,3.04-.02,4.2,2.54,4.18,5.64-.02,3.1-1.21,5.63-4.26,5.59Z"/>
    <path class="cls-1" d="M93.13,39.83v-1.05c.45-.09.9-.19,1.33-.32,1.16-.34,1.73-1.02,1.77-2.28.07-1.8.07-3.6.08-5.4,0-1.94.03-5.89-.03-7.83-.06-1.97-.71-2.93-2.66-3.22-.25-.04-.69-.1-.7-.1l-.03-1.26s8.28.01,8.28,0c0,1.59,0,5.12,0,5.1.19-.26.55-.73.75-.98,2.3-2.96,5.26-4.51,9.07-4.04,1.94.24,3.35,1.37,4.37,2.98.39.61.7,1.28,1.1,2,.16-.25.29-.46.42-.67,2.66-4.46,7.23-5.15,10.88-3.88,2.41.84,3.54,2.75,3.72,5.16.18,2.41.11,5.48.14,7.89.02,1.28,0,2.56.02,3.84.04,2.03.8,2.81,2.83,2.95.12.01.35.02.54.04.04.35-.05.69,0,1.08h-11.2v-1.06s.27-.01.8-.16c1.25-.34,2.01-.99,2.03-2.28.05-3.74.13-8.14-.02-11.88-.13-3.32-4.33-4.77-7.17-2.74-2.3,1.64-2.76,2.74-2.81,2.74-.09,2.15-.23,8.9-.2,11.05.03,2.2.3,2.8,2.48,3.14.12.02.49.06.66.1v1.08h-10.99v-1.03c.46-.11.92-.25,1.35-.38.92-.27,1.44-.92,1.51-1.86.08-.99.11-1.98.1-2.98-.02-2.91.02-6.48-.12-9.39-.1-2.03-1.31-3.43-3.04-3.84-1.39-.33-3.03.18-4.07,1.03-2.21,1.81-3.15,3.42-3.15,3.42-.12,2.39.02,9.05.13,11.44.07,1.65.59,2.19,2.23,2.43.19.03.64.08.64.09v1.06h-11.05Z"/>
    <path class="cls-1" d="M212.59,25.64c.07,1.24-.03,8.23,0,9.86.03,2.2.06,2.81,2.23,3.16.12.02.49.06.66.1v1.08h-10.99v-1.03c.46-.11.92-.25,1.35-.38.92-.27,1.44-.92,1.51-1.86.08-.99.11-1.98.1-2.98-.02-2.91.04-6.68.02-9.24-.01-2.04-1.44-3.47-3.18-3.88-1.39-.33-3.03.18-4.07,1.03-2.21,1.81-3.15,3.42-3.15,3.42-.12,2.39.02,8.95.13,11.35.07,1.65.59,2.19,2.23,2.43.19.03.64.08.64.09v1.06h-11.04v-1.05c.45-.09.9-.19,1.33-.32,1.16-.34,1.73-1.02,1.77-2.28.07-1.8.07-4.15.08-5.95,0-1.94.03-3.89-.03-5.83-.06-1.97-.71-2.6-2.66-2.89-.25-.04-.69-.1-.7-.1,0,0-.03-.84-.03-.8,2.24-.5,8.28-1.98,8.28-1.99,0,1.59,0,4.96,0,4.95.19-.26.55-.73.75-.98,1.41-1.81,3.27-3.3,5.53-3.85,3.08-.76,6.6-.06,8.21,2.82.78,1.39.97,2.52,1.06,4.1h0Z"/>
    <circle class="cls-1" cx="265.58" cy="9.54" r="3.17"/>
    <path class="cls-1" d="M253.04,33.71c0,1.02.05,1.84.13,2.46s.27,1.1.55,1.45c.28.35,1.07.82,1.58.95.51.14,1.03.14,1.87.16v1.1h-13.34v-1.1c.88-.03,1.58-.12,2.11-.26.53-.15.94-.38,1.25-.7s.5-.87.6-1.45c.1-.58.16-1.64.16-2.59v-17.38c0-1.45-.02-2.67-.07-3.65-.05-.98-.11-1.65-.2-1.99-.15-.62-.49-1.04-1.03-1.25s-1.51-.32-2.91-.32v-1.27l9.3-1.65v27.49h0Z"/>
    <path class="cls-1" d="M269.38,33.71c0,1.02.05,1.64.13,2.26s.27,1.1.55,1.45c.28.35,1.07.82,1.58.95.51.14,1.73.36,1.73.36v1.1h-13.34v-1.1c.96-.14,1.58-.33,2.11-.48.53-.15.94-.38,1.25-.7s.5-.87.6-1.45c.1-.58.14-8.66.1-9.64-.05-.98-.11-1.65-.2-1.99-.15-.62-.49-1.04-1.03-1.25s-1.51-.32-2.91-.32v-1.27l9.44-1.65v13.74h0Z"/>
    <path class="cls-1" d="M229.74,18.42c-6.65,0-12.05,4.01-12.03,10.9.02,6.62,5.39,10.9,12.03,10.9s12.01-4.38,12.03-10.9c.03-7.51-5.39-10.9-12.03-10.9ZM229.68,38.96c-3.88-.07-6.47-4.36-6.44-9.68.03-5.33,2.17-9.58,6.56-9.6,4.68-.03,6.47,4.36,6.44,9.68-.03,5.33-1.85,9.68-6.56,9.6Z"/>
  </g>
</svg>