<?xml version="1.0" encoding="utf-8"?>
<!-- Generator: Adobe Illustrator 28.2.0, SVG Export Plug-In . SVG Version: 6.00 Build 0)  -->
<svg version="1.1" id="Layer_1" xmlns="http://www.w3.org/2000/svg" xmlns:xlink="http://www.w3.org/1999/xlink" x="0px" y="0px"
	 viewBox="0 0 110 50" style="enable-background:new 0 0 110 50;" xml:space="preserve">
<style type="text/css">
	.st0{fill:#00B054;}
	.st1{fill:#003740;}
	.st2{fill:#00B15F;}
	.st3{fill:#FFFFFF;}
	.st4{fill:url(#SVGID_1_);}
	.st5{fill:url(#SVGID_00000165214474467823821950000016294082936182793652_);}
</style>
<g>
	<g>
		<polygon class="st0" points="15.3,5.3 0,5.3 0,20.6 15.3,20.6 15.3,20.6 		"/>
		<polygon class="st0" points="30.5,20.6 15.3,20.6 15.3,36 30.5,36 30.5,35 		"/>
	</g>
	<path class="st0" d="M110,35.9c-2.3-0.2-4.6-1-5.8-2.7C99.4,25.7,95,10.9,90.4,6.2c-5.8-5.8-14-5.9-18.9-3.7c-4.3,2-7.7,5.6-9,10.3
		c-0.9,3.3-0.7,6.8,0,10.4c0.5,2.6-0.6,6-4.4,5.4c-1.8-0.3-3.2-2.3-4-3.7c-3.4-5.7-5.4-10.5-9.8-15c-4.5-4.5-10-5.5-13.6-4.8v15.3
		c5.6-0.8,6.5,3.1,9.7,7.9c1.6,2.5,3.7,6.6,6.3,9.3c3.7,3.7,6.7,5.2,11.8,5.5c5.2,0.3,9.2-1.6,12.9-5.3C75,34.3,76,29.2,76,24.2
		c0-2.1-0.8-5.7-0.2-6.9c1.6-3.3,5.5-1.9,6.7,1.9c2,6.3,6.6,18,12.7,23.5c4.4,4,8.1,6.2,14.8,6V35.9z"/>
</g>
</svg>
