<?xml version="1.0" encoding="UTF-8"?>
<svg id="Layer_1" data-name="Layer 1" xmlns="http://www.w3.org/2000/svg" viewBox="0 0 810.33 233.8">
  <defs>
    <style>
      .cls-1, .cls-2 {
        stroke-width: 0px;
      }

      .cls-2 {
        fill: #00b054;
      }
    </style>
  </defs>
  <g>
    <g>
      <polygon class="cls-2" points="98.99 74.12 65.99 74.12 65.99 106.98 98.99 106.98 98.99 106.98 98.99 74.12"/>
      <polygon class="cls-2" points="131.99 106.98 98.99 106.98 98.99 140 131.99 140 131.99 138.05 131.99 106.98"/>
    </g>
    <path class="cls-2" d="M303.61,139.9c-4.97-.53-9.97-2.09-12.44-5.89-10.39-16.02-19.94-47.75-29.99-57.8-12.45-12.44-30.21-12.62-40.75-7.89-9.38,4.21-16.74,11.97-19.55,22.15-1.97,7.12-1.6,14.59-.04,22.33,1.11,5.48-1.3,12.88-9.58,11.56-3.86-.62-6.81-4.86-8.67-7.96-7.39-12.32-11.61-22.61-21.21-32.22-9.67-9.67-21.58-11.9-29.39-10.25v32.86c12-1.75,14.15,6.61,21,17.01,3.53,5.36,7.99,14.18,13.71,19.91,7.91,7.91,14.37,11.1,25.51,11.78,11.28.69,19.9-3.52,27.97-11.47,7.73-7.63,10.02-18.47,10.07-29.32.02-4.59-1.62-12.28-.41-14.75,3.44-7.01,11.85-4.08,14.46,4.11,4.31,13.55,14.18,38.59,27.36,50.43,9.61,8.64,17.59,13.3,31.96,12.99v-27.58Z"/>
  </g>
  <g>
    <path class="cls-1" d="M436.99,112.45v-2.72c0-6.75-3.52-9.31-8.76-9.66-1.03-.07-3.86.02-5.48,1.25-2.17,1.65-2.68,5.94-3.04,6.91-.5,1.36-.83,1.94-1.46,2.42-.64.49-1.45.84-2.67.84-3.03,0-4.46-1.37-4.46-3.94,0-2.81,1.78-6.17,5.65-7.98,3.06-1.44,7.39-2.47,13.09-2.35s9.96,1.1,12.76,2.94c3.59,2.36,4.43,4.91,4.43,9.26l-.02,17.22c0,3.02-.07,5.63.42,7.12.46,1.39,1.44,1.76,2.75,1.92.77.1,1.57-.17,2.28-.55,1.26-.68,2.01-2.64,2.32-4.37l1.64.28c0,4.36-2.13,6.27-3.84,7.47-1.6,1.12-4.13,1.49-6.26,1.49-2.67,0-4.7-1.14-6.18-2.39-2.04-1.72-2.92-4.89-2.92-4.89,0,0-3.04,3.26-5.83,4.72-2.79,1.46-5.89,2.57-9.28,2.57-3.82,0-7.09-.93-9.27-2.57-2.18-1.64-3.01-4.11-3.01-6.87,0-1.23.26-2.41.77-3.54.52-1.13,1.3-2.94,2.5-4.15,1.09-1.09,2.21-2.18,4.09-3.18,1.88-1,3.88-1.84,6.61-2.86l13.17-4.39ZM436.99,115.18c-3.46,1.13-5.96,2.22-8.35,3.29-2.4,1.08-4.23,2.24-5.79,3.66-1.34,1.22-1.77,2.67-2.1,4.21-.2.91-.12,2.13-.12,3.26,0,1.69.89,3.2,2.28,4.21s2.71,1.43,4.55,1.43c1.58,0,3.05-.54,4.41-1.21,1.37-.66,3.93-2.95,4.97-4.1l.15-14.75Z"/>
    <path class="cls-1" d="M714.52,112.45v-2.72c0-6.75-3.52-9.31-8.76-9.66-1.03-.07-3.86.02-5.48,1.25-2.17,1.65-2.68,5.94-3.04,6.91-.5,1.36-.83,1.94-1.46,2.42-.64.49-1.45.84-2.67.84-3.03,0-4.46-1.37-4.46-3.94,0-2.81,1.78-6.17,5.65-7.98,3.06-1.44,7.39-2.47,13.09-2.35s9.96,1.1,12.76,2.94c3.59,2.36,4.43,4.91,4.43,9.26l-.02,17.22c0,3.02-.07,5.63.42,7.12.46,1.39,1.44,1.76,2.75,1.92.77.1,1.57-.17,2.28-.55,1.26-.68,2.01-2.64,2.32-4.37l1.64.28c0,4.36-2.13,6.27-3.84,7.47-1.6,1.12-4.13,1.49-6.26,1.49-2.67,0-4.7-1.14-6.18-2.39-2.04-1.72-2.92-4.89-2.92-4.89,0,0-3.04,3.26-5.83,4.72-2.79,1.46-5.89,2.57-9.28,2.57-3.82,0-7.09-.93-9.27-2.57-2.18-1.64-3.01-4.11-3.01-6.87,0-1.23.26-2.41.77-3.54.52-1.13,1.3-2.94,2.5-4.15,1.09-1.09,2.21-2.18,4.09-3.18,1.88-1,3.88-1.84,6.61-2.86l13.17-4.39ZM714.52,115.18c-3.46,1.13-5.96,2.22-8.35,3.29-2.4,1.08-4.23,2.24-5.79,3.66-1.34,1.22-1.77,2.67-2.1,4.21-.2.91-.12,2.13-.12,3.26,0,1.69.89,3.2,2.28,4.21,1.4,1.02,2.71,1.43,4.55,1.43,1.58,0,3.05-.54,4.41-1.21,1.37-.66,3.93-2.95,4.97-4.1l.15-14.75Z"/>
    <path class="cls-1" d="M508.22,99.34c-.65-1.07-1.75-1.8-2.95-2.07-2.69-.6-5.74.21-7.84,1.98-.76.64-1.39,1.42-2.01,2.19-3.38-2.97-8.53-4.38-14.28-4.38-10.17,0-18.44,5.18-18.42,14.09,0,3.9,1.68,7.07,4.46,9.37,1.71,1.41,5.62,2.91,9.73,3.29-3.76.66-7.73,1.79-10.76,4.21-3.26,2.6-4.45,8.17-2.2,12,1.16,1.97,3.23,3.26,5.41,3.94,4.17,1.29,8.35.92,12.63.31,5.13-.74,12.98-.79,14.9,5.69.66,2.23.55,4.84-.88,7.59-1.48,2.85-4.66,5.8-10.13,7.06-6.24,1.44-12.23-1.06-15.72-4.81-3.65-3.92-3.04-7.25-2.28-11.18-3.69-1.63-6.59-.67-8.1,1.77-1.37,2.21-.31,6.37.46,7.82,1.95,3.67,5.54,6.27,11.44,8.12,10.25,3.21,25.53,2.24,31.02-9.11,1.91-3.94,2.14-9.22.7-13.35-1.8-5.15-7.13-8.09-12.07-9.09-6.57-1.34-12.17.58-17.96.2-.88-.06-1.77-.12-2.58-.46-.81-.34-1.54-1.01-1.7-1.87-.41-2.16,2.78-4.46,4.41-5.23,1.15-.54,4.63-2.29,7.79-2.67,4.45-.54,7.49-.85,10.45-2.3,4.69-2.3,7.78-6.21,7.8-11.31.01-3.27-.94-5.92-2.57-8.02.26-.72.82-1.29,1.43-1.73,1.04-.75,2.38-1.17,3.57-.74.86.31,1.73,1.08,2.32,1.74.76.85,1.14,1.15,1.94,1.25.42.05.89-.07,1.26-.27.68-.36,1.12-1.08,1.22-1.84.1-.76-.12-1.54-.52-2.19ZM481.13,122.05c-5.02-.07-8.36-5.05-8.32-11.22.04-6.17,2.8-11.1,8.47-11.12,6.05-.03,8.36,5.05,8.32,11.22-.04,6.17-2.4,11.21-8.47,11.12Z"/>
    <path class="cls-1" d="M321.32,139.77v-2.09c.9-.18,1.8-.38,2.65-.63,2.3-.68,3.44-2.03,3.53-4.54.13-3.58.13-7.17.15-10.75.01-3.87.06-7.74-.06-11.6-.12-3.92-1.42-5.17-5.29-5.75-.49-.07-1.38-.19-1.4-.19,0,0-.06-1.67-.06-1.59,4.46-1,16.47-3.95,16.47-3.97,0,3.17-.01,9.88,0,9.85.37-.51,1.1-1.46,1.49-1.96,4.58-5.9,10.47-8.97,18.06-8.04,3.86.47,6.66,2.72,8.7,5.94.77,1.22,1.39,2.54,2.18,3.99.31-.5.58-.92.83-1.34,5.3-8.88,14.39-10.25,21.66-7.72,4.79,1.67,7.05,5.48,7.41,10.26.36,4.79.22,9.61.28,14.42.03,2.55-.01,5.09.04,7.64.08,4.04,1.59,5.59,5.64,5.88.23.02.7.04,1.08.07.08.69-.09,1.37,0,2.15h-22.29s0-2.11,0-2.11c0,0,.53-.02,1.6-.31,2.48-.68,4.01-1.97,4.04-4.53.09-7.45.25-14.91-.03-22.35-.25-6.6-8.62-9.84-14.27-5.8-4.57,3.27-5.49,5.8-5.59,5.8-.18,4.28-.45,16.42-.39,20.71.06,4.38.6,5.58,4.93,6.25.23.04.97.12,1.31.19v2.15h-21.88v-2.05c.92-.21,1.83-.5,2.68-.75,1.83-.54,2.86-1.83,3-3.7.15-1.97.21-3.95.2-5.93-.03-5.8.04-11.6-.23-17.39-.19-4.04-2.6-6.82-6.05-7.64-2.76-.66-6.03.36-8.1,2.05-4.4,3.61-6.26,6.8-6.26,6.8-.23,4.75.04,16.72.25,21.48.14,3.28,1.17,4.36,4.43,4.83.37.05,1.28.15,1.28.17v2.11h-21.98Z"/>
    <path class="cls-1" d="M558.13,112.64c.13,2.47-.05,15.29,0,18.52.06,4.38.11,5.6,4.44,6.28.23.04.97.12,1.31.19v2.15h-21.88v-2.05c.92-.21,1.83-.5,2.68-.75,1.83-.54,2.86-1.83,3-3.7.15-1.97.21-3.95.2-5.93-.03-5.8.07-12.2.04-17.3-.02-4.05-2.87-6.9-6.32-7.72-2.76-.66-6.03.36-8.1,2.05-4.4,3.61-6.26,6.8-6.26,6.8-.23,4.75.04,16.72.25,21.48.14,3.28,1.17,4.36,4.43,4.83.37.05,1.28.15,1.28.17v2.11h-21.98v-2.09c.9-.18,1.8-.38,2.65-.63,2.3-.68,3.44-2.03,3.53-4.54.13-3.58.13-7.17.15-10.75.01-3.87.06-7.74-.06-11.6-.12-3.92-1.42-5.17-5.29-5.75-.49-.07-1.38-.19-1.4-.19,0,0-.06-1.67-.06-1.59,4.46-1,16.47-3.95,16.47-3.97,0,3.17-.01,9.88,0,9.85.37-.51,1.1-1.46,1.49-1.96,2.8-3.61,6.5-6.56,11-7.67,6.12-1.52,13.14-.12,16.33,5.61,1.55,2.77,1.93,5.01,2.1,8.16Z"/>
    <circle class="cls-1" cx="666.41" cy="79.5" r="6.3"/>
    <path class="cls-1" d="M641.44,127.6c0,2.03.09,3.66.26,4.89s.54,2.19,1.09,2.89c.55.7,2.12,1.63,3.14,1.9,1.02.27,2.04.27,3.72.32v2.19h-26.54v-2.19c1.75-.05,3.14-.23,4.19-.52,1.05-.29,1.87-.76,2.48-1.4.61-.64.99-1.73,1.19-2.88.2-1.15.32-3.27.32-5.15v-34.58c0-2.89-.04-5.31-.13-7.26-.09-1.95-.22-3.28-.39-3.97-.29-1.23-.97-2.06-2.05-2.49-1.08-.43-3.01-.64-5.79-.64v-2.53s18.5-3.28,18.5-3.28v54.7Z"/>
    <path class="cls-1" d="M673.96,127.6c0,2.03.09,3.26.26,4.49.17,1.23.54,2.19,1.09,2.89.55.7,2.12,1.63,3.14,1.9,1.02.27,3.45.72,3.45.72v2.19h-26.54v-2.19c1.91-.27,3.14-.66,4.19-.96,1.05-.29,1.87-.76,2.48-1.4.61-.64.99-1.73,1.19-2.88.2-1.15.28-17.24.19-19.19-.09-1.95-.22-3.28-.39-3.97-.29-1.23-.97-2.06-2.05-2.49-1.08-.43-3.01-.64-5.79-.64v-2.53s18.78-3.28,18.78-3.28v27.34Z"/>
    <path class="cls-1" d="M594.14,97.16c-13.23,0-23.98,7.98-23.95,21.7.03,13.18,10.72,21.7,23.95,21.7s23.91-8.72,23.95-21.7c.05-14.94-10.72-21.7-23.95-21.7ZM594.02,138.04c-7.73-.13-12.88-8.67-12.81-19.27.06-10.6,4.31-19.07,13.05-19.11,9.32-.05,12.88,8.67,12.81,19.27-.06,10.6-3.69,19.27-13.05,19.11Z"/>
  </g>
</svg>