<?xml version="1.0" encoding="iso-8859-1"?>
<!-- Generator: Adobe Illustrator 19.0.0, SVG Export Plug-In . SVG Version: 6.00 Build 0)  -->
<svg version="1.1" id="Capa_1" xmlns="http://www.w3.org/2000/svg" xmlns:xlink="http://www.w3.org/1999/xlink" x="0px" y="0px"
	 viewBox="0 0 512 512" style="enable-background:new 0 0 512 512;" xml:space="preserve">
<path style="fill:#5F6E9B;" d="M254.862,494.144l-41.607-122.362L99.276,342.356c-14.075-3.634-22.54-17.99-18.906-32.066
	c3.633-14.077,17.99-22.54,32.066-18.906l127.742,32.98c8.589,2.218,15.485,8.613,18.34,17.012l46.184,135.821
	c4.68,13.763-2.683,28.714-16.446,33.394C274.474,515.277,259.536,507.889,254.862,494.144z"/>
<path style="fill:#823214;" d="M223.318,316.32c-0.001,0.072-0.011,0.142-0.011,0.215v175.806c0,10.857,8.802,19.659,19.659,19.659
	s19.659-8.802,19.659-19.659V316.535c0-0.073-0.01-0.142-0.011-0.215H223.318z"/>
<path style="fill:#50555A;" d="M113.618,484.818c-6.685,0-12.104-5.42-12.104-12.105v-98.928c0-6.685,5.419-12.105,12.104-12.105
	s12.104,5.42,12.104,12.105v98.928C125.722,479.398,120.303,484.818,113.618,484.818z"/>
<g>
	<circle style="fill:#FFB69E;" cx="141.88" cy="99.72" r="48.41"/>
	<path style="fill:#FFB69E;" d="M179.471,239.137c-2.303,0-4.611-0.362-6.835-1.092l-71.796-23.546
		c-11.511-3.775-17.783-16.167-14.007-27.678c3.774-11.511,16.169-17.783,27.678-14.007l63.762,20.911l55.771-24.834
		c11.062-4.928,24.032,0.048,28.961,11.115c4.927,11.066-0.049,24.033-11.116,28.96l-63.495,28.274
		C185.562,238.501,182.52,239.137,179.471,239.137z"/>
</g>
<path style="fill:#64AFFF;" d="M165.212,365.009l-73.797,16.669c-8.178,1.847-16.753-0.077-23.358-5.24
	c-6.605-5.164-10.541-13.021-10.722-21.403l-2.971-137.599c-0.332-15.374,5.77-30.188,16.834-40.868
	c11.064-10.68,26.084-16.256,41.437-15.381l31.323,1.783c18.033,1.027,31.82,16.478,30.793,34.511l-3.5,61.467l-2.863,50.287
	L165.212,365.009z"/>
<path style="fill:#FF3C3C;" d="M179.742,387.487H47.678c-9.146,0-16.864-6.802-18.013-15.876L4.138,170.042
	c-1.259-9.948,5.784-19.034,15.732-20.294c9.942-1.261,19.034,5.783,20.295,15.732l23.516,185.694h116.062
	c10.028,0,18.157,8.129,18.157,18.157C197.899,379.358,189.77,387.487,179.742,387.487z"/>
<path style="fill:#80868C;" d="M156.044,508.455l-18.439-18.44H88.062l-18.439,18.44c-4.728,4.727-12.392,4.727-17.118,0
	c-4.727-4.727-4.727-12.391-0.001-17.118l21.985-21.985c2.271-2.27,5.349-3.545,8.56-3.545h59.571c3.211,0,6.289,1.275,8.56,3.545
	l21.985,21.985c4.726,4.727,4.726,12.391-0.001,17.118C168.437,513.181,160.772,513.183,156.044,508.455z"/>
<path style="fill:#BEEBFA;" d="M347.733,81.418c8.158-8.342,12.927-18.409,12.927-29.249C360.659,23.357,326.988,0,285.451,0
	c-41.536,0-75.208,23.357-75.208,52.169c0,28.813,33.672,52.17,75.208,52.17c14.606,0,28.23-2.897,39.769-7.896l28.935,10.442
	c4.389,1.584,8.279-3.368,5.692-7.257L347.733,81.418z"/>
<path style="fill:#823214;" d="M440.736,316.32v176.021c0,10.857,8.802,19.659,19.659,19.659s19.659-8.802,19.659-19.659V316.32
	H440.736z"/>
<path style="fill:#C8A06E;" d="M508.008,314.741c0,5.336-4.325,9.661-9.661,9.661H205.014c-5.336,0-9.661-4.325-9.661-9.661v-34.925
	c0-5.336,4.325-9.661,9.661-9.661h293.333c5.336,0,9.661,4.325,9.661,9.661L508.008,314.741L508.008,314.741z"/>
<circle style="fill:#696E73;" cx="142.46" cy="99.72" r="14.406"/>
<path style="fill:#373C41;" d="M385.603,270.155h-66.345c-6.426,0-11.635-5.21-11.635-11.636s5.209-11.636,11.635-11.636h54.72
	l0.094-105.589c0.005-6.423,5.214-11.625,11.635-11.625c0.003,0,0.007,0,0.01,0c6.426,0.006,11.631,5.22,11.625,11.646
	l-0.103,117.214C397.233,264.952,392.025,270.155,385.603,270.155z"/>
<g>
	<path style="fill:#FFFFFF;" d="M258.188,62.656h-12.675c-1.572,0-2.817-1.029-2.817-2.925c0-0.433,0.108-1.029,0.434-1.625
		l12.513-24.539c0.812-1.571,2.166-2.167,3.521-2.167c1.462,0,4.225,1.246,4.225,3.196c0,0.325-0.108,0.65-0.271,1.029l-9.588,19.23
		h4.658v-3.792c0-1.788,2.113-2.546,4.226-2.546s4.225,0.758,4.225,2.546v3.792h2.33c1.733,0,2.6,1.95,2.6,3.9s-1.3,3.9-2.6,3.9
		h-2.33v5.742c0,1.733-2.112,2.6-4.225,2.6s-4.226-0.867-4.226-2.6L258.188,62.656L258.188,62.656z"/>
	<path style="fill:#FFFFFF;" d="M273.516,58.539V44.184c0-9.317,5.796-12.784,13.271-12.784s13.325,3.467,13.325,12.784v14.355
		c0,9.318-5.85,12.784-13.325,12.784S273.516,67.856,273.516,58.539z M291.662,44.184c0-3.738-1.842-5.417-4.875-5.417
		s-4.821,1.679-4.821,5.417v14.355c0,3.738,1.788,5.417,4.821,5.417c3.033,0,4.875-1.679,4.875-5.417V44.184z"/>
	<path style="fill:#FFFFFF;" d="M317.444,62.656h-12.675c-1.572,0-2.817-1.029-2.817-2.925c0-0.433,0.108-1.029,0.434-1.625
		l12.513-24.539c0.812-1.571,2.166-2.167,3.521-2.167c1.462,0,4.225,1.246,4.225,3.196c0,0.325-0.108,0.65-0.271,1.029l-9.588,19.23
		h4.658v-3.792c0-1.788,2.113-2.546,4.226-2.546s4.225,0.758,4.225,2.546v3.792h2.33c1.733,0,2.6,1.95,2.6,3.9s-1.3,3.9-2.6,3.9
		h-2.33v5.742c0,1.733-2.112,2.6-4.225,2.6s-4.226-0.867-4.226-2.6V62.656z"/>
</g>
<path style="fill:#FFB69E;" d="M151.648,273.951l-60.126-65.456c-8.195-8.922-7.607-22.797,1.316-30.992
	c8.921-8.195,22.799-7.606,30.992,1.315l52.806,57.487l77.136-6.866c12.07-1.075,22.718,7.838,23.793,19.904
	c1.074,12.066-7.837,22.719-19.904,23.793l-87.914,7.825C163.106,281.553,156.364,279.086,151.648,273.951z"/>
<path style="fill:#7DBCFF;" d="M161.081,219.371l-37.252-40.554c-8.193-8.921-22.07-9.511-30.992-1.316s-9.511,22.071-1.316,30.993
	l35.593,38.748L161.081,219.371z"/>
<path style="fill:#373C41;" d="M175.765,144.283l-27.103-12.368v-30.787c0-3.042-2.466-5.508-5.508-5.508l0,0
	c-3.042,0-5.508,2.466-5.508,5.508v33.578c0.004,2.661,1.559,5.075,3.98,6.18l29.749,13.574c2.921,1.334,6.425-0.082,7.531-3.212
	C179.876,148.509,178.409,145.489,175.765,144.283z"/>
<path style="fill:#696E73;" d="M373.244,225.254c-1.037,2.358-3.797,3.424-6.149,2.375l-25.441-11.343
	c-2.337-1.042-3.393-3.776-2.363-6.118l70.352-159.982c1.037-2.358,3.797-3.424,6.149-2.375l25.441,11.343
	c2.337,1.042,3.393,3.776,2.363,6.118L373.244,225.254z"/>
<g>
</g>
<g>
</g>
<g>
</g>
<g>
</g>
<g>
</g>
<g>
</g>
<g>
</g>
<g>
</g>
<g>
</g>
<g>
</g>
<g>
</g>
<g>
</g>
<g>
</g>
<g>
</g>
<g>
</g>
</svg>
